<svg id="Layer_1" data-name="Layer 1" xmlns="http://www.w3.org/2000/svg" xmlns:xlink="http://www.w3.org/1999/xlink" viewBox="0 0 104.07 161.62"><defs><style>.cls-1,.cls-2{fill:#f1c9a5;stroke:#f1c9a5;}.cls-1,.cls-2,.cls-3,.cls-4{stroke-miterlimit:10;}.cls-1{stroke-width:2px;}.cls-3{fill:url(#Sky);stroke:url(#Sky-2);}.cls-4{fill:url(#Sky-3);stroke:url(#Sky-4);}.cls-10,.cls-5,.cls-6,.cls-7,.cls-8,.cls-9{stroke-linecap:round;}.cls-5{fill:url(#Sky-5);stroke:url(#Sky-6);}.cls-6{fill:url(#Sky-7);stroke:url(#Sky-8);}.cls-7{fill:url(#Sky-9);stroke:url(#Sky-10);}.cls-8{fill:url(#Sky-11);stroke:url(#Sky-12);}.cls-9{fill:url(#Sky-13);stroke:url(#Sky-14);}.cls-10{fill:url(#Sky-15);stroke:url(#Sky-16);}.cls-11{fill:none;stroke:#1a1a1a;}.cls-12{fill:#1a1a1a;}</style><linearGradient id="Sky" x1="22.54" y1="65.74" x2="27.54" y2="65.74" gradientUnits="userSpaceOnUse"><stop offset="0" stop-color="#cce0f4"/><stop offset="0.06" stop-color="#c3dcf2"/><stop offset="0.17" stop-color="#a9d2ee"/><stop offset="0.31" stop-color="#80c2e7"/><stop offset="0.46" stop-color="#47acde"/><stop offset="0.57" stop-color="#1e9cd7"/><stop offset="0.87" stop-color="#0075be"/><stop offset="0.99" stop-color="#005b97"/></linearGradient><linearGradient id="Sky-2" x1="22.04" y1="65.74" x2="28.04" y2="65.74" xlink:href="#Sky"/><linearGradient id="Sky-3" x1="86" y1="214.08" x2="162" y2="214.08" xlink:href="#Sky"/><linearGradient id="Sky-4" x1="85.43" y1="213.98" x2="162.57" y2="213.98" xlink:href="#Sky"/><linearGradient id="Sky-5" x1="41.29" y1="92.68" x2="44.54" y2="92.68" xlink:href="#Sky"/><linearGradient id="Sky-6" x1="40.79" y1="92.68" x2="45.04" y2="92.68" xlink:href="#Sky"/><linearGradient id="Sky-7" x1="48.29" y1="95.68" x2="51.54" y2="95.68" xlink:href="#Sky"/><linearGradient id="Sky-8" x1="47.79" y1="95.68" x2="52.04" y2="95.68" xlink:href="#Sky"/><linearGradient id="Sky-9" x1="44.29" y1="94.68" x2="47.54" y2="94.68" xlink:href="#Sky"/><linearGradient id="Sky-10" x1="43.79" y1="94.68" x2="48.04" y2="94.68" xlink:href="#Sky"/><linearGradient id="Sky-11" x1="52.29" y1="95.68" x2="55.54" y2="95.68" xlink:href="#Sky"/><linearGradient id="Sky-12" x1="51.79" y1="95.68" x2="56.04" y2="95.68" xlink:href="#Sky"/><linearGradient id="Sky-13" x1="60.29" y1="93.68" x2="63.54" y2="93.68" xlink:href="#Sky"/><linearGradient id="Sky-14" x1="59.79" y1="93.68" x2="64.04" y2="93.68" xlink:href="#Sky"/><linearGradient id="Sky-15" x1="56.29" y1="94.68" x2="59.54" y2="94.68" xlink:href="#Sky"/><linearGradient id="Sky-16" x1="55.79" y1="94.68" x2="60.04" y2="94.68" xlink:href="#Sky"/></defs><title>consumer</title><path class="cls-1" d="M101,147c-.74-4.35-1-7.65-1-8-.32-4.95,4.14-14.92,12-26,2.35,2,5.85,5.12,10,9,14.45,13.49,16.32,17.41,17,19,1.43,3.34,3.4,9.93,1,20a11.84,11.84,0,0,1-1,2c-3.35,5.34-10.75,7.24-16,7-12-.55-19.68-12.62-21-18C101.88,151.52,101.43,149.53,101,147Z" transform="translate(-71.96 -86.26)"/><path class="cls-2" d="M96.59,141.7c-1.2.21-2.22,4-.79,7a6.74,6.74,0,0,0,6.61,3.78C99.15,143.25,97.5,141.54,96.59,141.7Z" transform="translate(-71.96 -86.26)"/><circle class="cls-3" cx="25.04" cy="65.74" r="2.5"/><path class="cls-2" d="M114.5,168.5v10s-6.68,1.21-13.52,3.14c-5.56,1.57-11.24,3.62-13.48,5.86,0,0-10,6-15,43l13,8s8-35,6-53l10-3,1,12s11,8,21,9c0,0,14-1,22-9l2-13,12,5s12,4,16,44l-13,9s-7-36-6-54l-9-4s-9-3-13-3v-10s-5,3-10,2a21.5,21.5,0,0,1-10-3Z" transform="translate(-71.96 -86.26)"/><path class="cls-4" d="M156,184.64a33.64,33.64,0,0,1-4.24-2A15.8,15.8,0,0,0,148.3,181c-.15,0-.28-.12-.42-.17L146,193.4c-6,7.21-22,9.27-22,9.27-7,0-22-9.27-22-9.27L101,181l-9,3.09c2,18.55-6,54.62-6,54.62,20,11.34,41,8.25,41,8.25,12,1,35-7.22,35-7.22C155.64,208,155.88,188,156,184.64Z" transform="translate(-71.96 -86.26)"/><circle class="cls-5" cx="42.91" cy="92.68" r="1.62"/><circle class="cls-6" cx="49.91" cy="95.68" r="1.62"/><circle class="cls-7" cx="45.91" cy="94.68" r="1.62"/><circle class="cls-8" cx="53.91" cy="95.68" r="1.62"/><circle class="cls-9" cx="61.91" cy="93.68" r="1.62"/><circle class="cls-10" cx="57.91" cy="94.68" r="1.62"/><path d="M100,145a35.93,35.93,0,0,1,0-11c1.81-11.63,8.94-19.14,12-22a193.93,193.93,0,0,1,15,14c5.68,5.89,9.71,10.07,12,14,7.79,13.34.37,32-4,41a61.6,61.6,0,0,0,9-9c19.3-23.84,14.91-55.55,13-66a29.77,29.77,0,0,0-5-8c-8.57-9.78-24.31-14.3-37-9a29.29,29.29,0,0,0-10,7,10,10,0,0,0-5,0c-8.82,2.41-13.7,18.5-11,31C91,136,96.61,142,100,145Z" transform="translate(-71.96 -86.26)"/><path class="cls-11" d="M100,145a35.93,35.93,0,0,1,0-11c1.81-11.63,8.94-19.14,12-22a193.93,193.93,0,0,1,15,14c5.68,5.89,9.71,10.07,12,14,7.79,13.34.37,32-4,41a61.6,61.6,0,0,0,9-9c19.3-23.84,14.91-55.55,13-66a29.77,29.77,0,0,0-5-8c-8.57-9.78-24.31-14.3-37-9a29.29,29.29,0,0,0-10,7,10,10,0,0,0-5,0c-8.82,2.41-13.7,18.5-11,31C91,136,96.61,142,100,145Z" transform="translate(-71.96 -86.26)"/><path class="cls-12" d="M100,145a35.93,35.93,0,0,1,0-11c1.81-11.63,8.94-19.14,12-22a193.93,193.93,0,0,1,15,14c5.68,5.89,9.71,10.07,12,14,7.79,13.34.37,32-4,41a61.6,61.6,0,0,0,9-9c19.3-23.84,14.91-55.55,13-66a29.77,29.77,0,0,0-5-8c-8.57-9.78-24.31-14.3-37-9a29.29,29.29,0,0,0-10,7,10,10,0,0,0-5,0c-8.82,2.41-13.7,18.5-11,31C91,136,96.61,142,100,145Z" transform="translate(-71.96 -86.26)"/></svg>