<?xml version="1.0" encoding="utf-8"?>
<!-- Generator: Adobe Illustrator 22.0.0, SVG Export Plug-In . SVG Version: 6.00 Build 0)  -->
<svg version="1.1" id="Layer_1" xmlns="http://www.w3.org/2000/svg" xmlns:xlink="http://www.w3.org/1999/xlink" x="0px" y="0px"
	 viewBox="0 0 104.1 161.6" style="enable-background:new 0 0 104.1 161.6;" xml:space="preserve">
<style type="text/css">
	.st0{fill:#F1C9A5;stroke:#F1C9A5;stroke-width:2;stroke-miterlimit:10;}
	.st1{fill:#F1C9A5;stroke:#F1C9A5;stroke-miterlimit:10;}
	.st2{fill:url(#SVGID_1_);stroke:url(#SVGID_2_);stroke-miterlimit:10;}
	.st3{fill:url(#SVGID_3_);stroke:url(#SVGID_4_);stroke-miterlimit:10;}
	.st4{fill:url(#SVGID_5_);stroke:url(#SVGID_6_);stroke-linecap:round;}
	.st5{fill:url(#SVGID_7_);stroke:url(#SVGID_8_);stroke-linecap:round;}
	.st6{fill:url(#SVGID_9_);stroke:url(#SVGID_10_);stroke-linecap:round;}
	.st7{fill:url(#SVGID_11_);stroke:url(#SVGID_12_);stroke-linecap:round;}
	.st8{fill:url(#SVGID_13_);stroke:url(#SVGID_14_);stroke-linecap:round;}
	.st9{fill:url(#SVGID_15_);stroke:url(#SVGID_16_);stroke-linecap:round;}
	.st10{fill:none;stroke:#1A1A1A;}
	.st11{fill:url(#SVGID_17_);stroke:#69C9FF;stroke-miterlimit:10;}
</style>
<title>consumer</title>
<path class="st0" d="M29,60.7c-0.7-4.4-1-7.6-1-8c-0.3-4.9,4.1-14.9,12-26c2.3,2,5.8,5.1,10,9c14.4,13.5,16.3,17.4,17,19
	c1.4,3.3,3.4,9.9,1,20c-0.3,0.7-0.6,1.4-1,2c-3.4,5.3-10.8,7.2-16,7c-12-0.6-19.7-12.6-21-18C29.9,65.3,29.5,63.3,29,60.7z"/>
<path class="st1" d="M24.6,55.4c-1.2,0.2-2.2,4-0.8,7c1.2,2.5,3.8,4,6.6,3.8C27.2,57,25.5,55.3,24.6,55.4z"/>
<linearGradient id="SVGID_1_" gradientUnits="userSpaceOnUse" x1="22.54" y1="98.26" x2="27.54" y2="98.26" gradientTransform="matrix(1 0 0 -1 0 164)">
	<stop  offset="0" style="stop-color:#CCE0F4"/>
	<stop  offset="6.000000e-02" style="stop-color:#C3DCF2"/>
	<stop  offset="0.17" style="stop-color:#A9D2EE"/>
	<stop  offset="0.31" style="stop-color:#80C2E7"/>
	<stop  offset="0.46" style="stop-color:#47ACDE"/>
	<stop  offset="0.57" style="stop-color:#1E9CD7"/>
	<stop  offset="0.87" style="stop-color:#0075BE"/>
	<stop  offset="0.99" style="stop-color:#005B97"/>
</linearGradient>
<linearGradient id="SVGID_2_" gradientUnits="userSpaceOnUse" x1="22.04" y1="98.26" x2="28.04" y2="98.26" gradientTransform="matrix(1 0 0 -1 0 164)">
	<stop  offset="0" style="stop-color:#CCE0F4"/>
	<stop  offset="6.000000e-02" style="stop-color:#C3DCF2"/>
	<stop  offset="0.17" style="stop-color:#A9D2EE"/>
	<stop  offset="0.31" style="stop-color:#80C2E7"/>
	<stop  offset="0.46" style="stop-color:#47ACDE"/>
	<stop  offset="0.57" style="stop-color:#1E9CD7"/>
	<stop  offset="0.87" style="stop-color:#0075BE"/>
	<stop  offset="0.99" style="stop-color:#005B97"/>
</linearGradient>
<circle class="st2" cx="25" cy="65.7" r="2.5"/>
<path class="st1" d="M42.5,82.2v10c0,0-6.7,1.2-13.5,3.1c-5.6,1.6-11.2,3.6-13.5,5.9c0,0-10,6-15,43l13,8c0,0,8-35,6-53l10-3l1,12
	c0,0,11,8,21,9c0,0,14-1,22-9l2-13l12,5c0,0,12,4,16,44l-13,9c0,0-7-36-6-54l-9-4c0,0-9-3-13-3v-10c0,0-5,3-10,2
	c-3.5-0.2-7-1.2-10-3V82.2z"/>
<linearGradient id="SVGID_3_" gradientUnits="userSpaceOnUse" x1="86" y1="-50.0872" x2="162" y2="-50.0872" gradientTransform="matrix(1 0 0 -1 -71.96 77.74)">
	<stop  offset="0" style="stop-color:#CCE0F4"/>
	<stop  offset="6.000000e-02" style="stop-color:#C3DCF2"/>
	<stop  offset="0.17" style="stop-color:#A9D2EE"/>
	<stop  offset="0.31" style="stop-color:#80C2E7"/>
	<stop  offset="0.46" style="stop-color:#47ACDE"/>
	<stop  offset="0.57" style="stop-color:#1E9CD7"/>
	<stop  offset="0.87" style="stop-color:#0075BE"/>
	<stop  offset="0.99" style="stop-color:#005B97"/>
</linearGradient>
<linearGradient id="SVGID_4_" gradientUnits="userSpaceOnUse" x1="85.4318" y1="-49.9995" x2="162.5751" y2="-49.9995" gradientTransform="matrix(1 0 0 -1 -71.96 77.74)">
	<stop  offset="0" style="stop-color:#CCE0F4"/>
	<stop  offset="6.000000e-02" style="stop-color:#C3DCF2"/>
	<stop  offset="0.17" style="stop-color:#A9D2EE"/>
	<stop  offset="0.31" style="stop-color:#80C2E7"/>
	<stop  offset="0.46" style="stop-color:#47ACDE"/>
	<stop  offset="0.57" style="stop-color:#1E9CD7"/>
	<stop  offset="0.87" style="stop-color:#0075BE"/>
	<stop  offset="0.99" style="stop-color:#005B97"/>
</linearGradient>
<path class="st3" d="M84,98.4c-1.5-0.6-2.9-1.2-4.2-2c-1.1-0.7-2.2-1.2-3.5-1.6c-0.1,0-0.3-0.1-0.4-0.2L74,107.1
	c-6,7.2-22,9.3-22,9.3c-7,0-22-9.3-22-9.3l-1-12.4l-9,3.1c2,18.6-6,54.6-6,54.6c20,11.3,41,8.3,41,8.3c12,1,35-7.2,35-7.2
	C83.7,121.7,83.9,101.7,84,98.4z"/>
<linearGradient id="SVGID_5_" gradientUnits="userSpaceOnUse" x1="41.29" y1="71.32" x2="44.54" y2="71.32" gradientTransform="matrix(1 0 0 -1 0 164)">
	<stop  offset="0" style="stop-color:#CCE0F4"/>
	<stop  offset="6.000000e-02" style="stop-color:#C3DCF2"/>
	<stop  offset="0.17" style="stop-color:#A9D2EE"/>
	<stop  offset="0.31" style="stop-color:#80C2E7"/>
	<stop  offset="0.46" style="stop-color:#47ACDE"/>
	<stop  offset="0.57" style="stop-color:#1E9CD7"/>
	<stop  offset="0.87" style="stop-color:#0075BE"/>
	<stop  offset="0.99" style="stop-color:#005B97"/>
</linearGradient>
<linearGradient id="SVGID_6_" gradientUnits="userSpaceOnUse" x1="40.79" y1="71.32" x2="45.04" y2="71.32" gradientTransform="matrix(1 0 0 -1 0 164)">
	<stop  offset="0" style="stop-color:#CCE0F4"/>
	<stop  offset="6.000000e-02" style="stop-color:#C3DCF2"/>
	<stop  offset="0.17" style="stop-color:#A9D2EE"/>
	<stop  offset="0.31" style="stop-color:#80C2E7"/>
	<stop  offset="0.46" style="stop-color:#47ACDE"/>
	<stop  offset="0.57" style="stop-color:#1E9CD7"/>
	<stop  offset="0.87" style="stop-color:#0075BE"/>
	<stop  offset="0.99" style="stop-color:#005B97"/>
</linearGradient>
<circle class="st4" cx="42.9" cy="92.7" r="1.6"/>
<linearGradient id="SVGID_7_" gradientUnits="userSpaceOnUse" x1="48.29" y1="68.32" x2="51.54" y2="68.32" gradientTransform="matrix(1 0 0 -1 0 164)">
	<stop  offset="0" style="stop-color:#CCE0F4"/>
	<stop  offset="6.000000e-02" style="stop-color:#C3DCF2"/>
	<stop  offset="0.17" style="stop-color:#A9D2EE"/>
	<stop  offset="0.31" style="stop-color:#80C2E7"/>
	<stop  offset="0.46" style="stop-color:#47ACDE"/>
	<stop  offset="0.57" style="stop-color:#1E9CD7"/>
	<stop  offset="0.87" style="stop-color:#0075BE"/>
	<stop  offset="0.99" style="stop-color:#005B97"/>
</linearGradient>
<linearGradient id="SVGID_8_" gradientUnits="userSpaceOnUse" x1="47.79" y1="68.32" x2="52.04" y2="68.32" gradientTransform="matrix(1 0 0 -1 0 164)">
	<stop  offset="0" style="stop-color:#CCE0F4"/>
	<stop  offset="6.000000e-02" style="stop-color:#C3DCF2"/>
	<stop  offset="0.17" style="stop-color:#A9D2EE"/>
	<stop  offset="0.31" style="stop-color:#80C2E7"/>
	<stop  offset="0.46" style="stop-color:#47ACDE"/>
	<stop  offset="0.57" style="stop-color:#1E9CD7"/>
	<stop  offset="0.87" style="stop-color:#0075BE"/>
	<stop  offset="0.99" style="stop-color:#005B97"/>
</linearGradient>
<circle class="st5" cx="49.9" cy="95.7" r="1.6"/>
<linearGradient id="SVGID_9_" gradientUnits="userSpaceOnUse" x1="44.29" y1="69.32" x2="47.54" y2="69.32" gradientTransform="matrix(1 0 0 -1 0 164)">
	<stop  offset="0" style="stop-color:#CCE0F4"/>
	<stop  offset="6.000000e-02" style="stop-color:#C3DCF2"/>
	<stop  offset="0.17" style="stop-color:#A9D2EE"/>
	<stop  offset="0.31" style="stop-color:#80C2E7"/>
	<stop  offset="0.46" style="stop-color:#47ACDE"/>
	<stop  offset="0.57" style="stop-color:#1E9CD7"/>
	<stop  offset="0.87" style="stop-color:#0075BE"/>
	<stop  offset="0.99" style="stop-color:#005B97"/>
</linearGradient>
<linearGradient id="SVGID_10_" gradientUnits="userSpaceOnUse" x1="43.79" y1="69.32" x2="48.04" y2="69.32" gradientTransform="matrix(1 0 0 -1 0 164)">
	<stop  offset="0" style="stop-color:#CCE0F4"/>
	<stop  offset="6.000000e-02" style="stop-color:#C3DCF2"/>
	<stop  offset="0.17" style="stop-color:#A9D2EE"/>
	<stop  offset="0.31" style="stop-color:#80C2E7"/>
	<stop  offset="0.46" style="stop-color:#47ACDE"/>
	<stop  offset="0.57" style="stop-color:#1E9CD7"/>
	<stop  offset="0.87" style="stop-color:#0075BE"/>
	<stop  offset="0.99" style="stop-color:#005B97"/>
</linearGradient>
<circle class="st6" cx="45.9" cy="94.7" r="1.6"/>
<linearGradient id="SVGID_11_" gradientUnits="userSpaceOnUse" x1="52.29" y1="68.32" x2="55.54" y2="68.32" gradientTransform="matrix(1 0 0 -1 0 164)">
	<stop  offset="0" style="stop-color:#CCE0F4"/>
	<stop  offset="6.000000e-02" style="stop-color:#C3DCF2"/>
	<stop  offset="0.17" style="stop-color:#A9D2EE"/>
	<stop  offset="0.31" style="stop-color:#80C2E7"/>
	<stop  offset="0.46" style="stop-color:#47ACDE"/>
	<stop  offset="0.57" style="stop-color:#1E9CD7"/>
	<stop  offset="0.87" style="stop-color:#0075BE"/>
	<stop  offset="0.99" style="stop-color:#005B97"/>
</linearGradient>
<linearGradient id="SVGID_12_" gradientUnits="userSpaceOnUse" x1="51.79" y1="68.32" x2="56.04" y2="68.32" gradientTransform="matrix(1 0 0 -1 0 164)">
	<stop  offset="0" style="stop-color:#CCE0F4"/>
	<stop  offset="6.000000e-02" style="stop-color:#C3DCF2"/>
	<stop  offset="0.17" style="stop-color:#A9D2EE"/>
	<stop  offset="0.31" style="stop-color:#80C2E7"/>
	<stop  offset="0.46" style="stop-color:#47ACDE"/>
	<stop  offset="0.57" style="stop-color:#1E9CD7"/>
	<stop  offset="0.87" style="stop-color:#0075BE"/>
	<stop  offset="0.99" style="stop-color:#005B97"/>
</linearGradient>
<circle class="st7" cx="53.9" cy="95.7" r="1.6"/>
<linearGradient id="SVGID_13_" gradientUnits="userSpaceOnUse" x1="60.29" y1="70.32" x2="63.54" y2="70.32" gradientTransform="matrix(1 0 0 -1 0 164)">
	<stop  offset="0" style="stop-color:#CCE0F4"/>
	<stop  offset="6.000000e-02" style="stop-color:#C3DCF2"/>
	<stop  offset="0.17" style="stop-color:#A9D2EE"/>
	<stop  offset="0.31" style="stop-color:#80C2E7"/>
	<stop  offset="0.46" style="stop-color:#47ACDE"/>
	<stop  offset="0.57" style="stop-color:#1E9CD7"/>
	<stop  offset="0.87" style="stop-color:#0075BE"/>
	<stop  offset="0.99" style="stop-color:#005B97"/>
</linearGradient>
<linearGradient id="SVGID_14_" gradientUnits="userSpaceOnUse" x1="59.79" y1="70.32" x2="64.04" y2="70.32" gradientTransform="matrix(1 0 0 -1 0 164)">
	<stop  offset="0" style="stop-color:#CCE0F4"/>
	<stop  offset="6.000000e-02" style="stop-color:#C3DCF2"/>
	<stop  offset="0.17" style="stop-color:#A9D2EE"/>
	<stop  offset="0.31" style="stop-color:#80C2E7"/>
	<stop  offset="0.46" style="stop-color:#47ACDE"/>
	<stop  offset="0.57" style="stop-color:#1E9CD7"/>
	<stop  offset="0.87" style="stop-color:#0075BE"/>
	<stop  offset="0.99" style="stop-color:#005B97"/>
</linearGradient>
<circle class="st8" cx="61.9" cy="93.7" r="1.6"/>
<linearGradient id="SVGID_15_" gradientUnits="userSpaceOnUse" x1="56.29" y1="69.32" x2="59.54" y2="69.32" gradientTransform="matrix(1 0 0 -1 0 164)">
	<stop  offset="0" style="stop-color:#CCE0F4"/>
	<stop  offset="6.000000e-02" style="stop-color:#C3DCF2"/>
	<stop  offset="0.17" style="stop-color:#A9D2EE"/>
	<stop  offset="0.31" style="stop-color:#80C2E7"/>
	<stop  offset="0.46" style="stop-color:#47ACDE"/>
	<stop  offset="0.57" style="stop-color:#1E9CD7"/>
	<stop  offset="0.87" style="stop-color:#0075BE"/>
	<stop  offset="0.99" style="stop-color:#005B97"/>
</linearGradient>
<linearGradient id="SVGID_16_" gradientUnits="userSpaceOnUse" x1="55.79" y1="69.32" x2="60.04" y2="69.32" gradientTransform="matrix(1 0 0 -1 0 164)">
	<stop  offset="0" style="stop-color:#CCE0F4"/>
	<stop  offset="6.000000e-02" style="stop-color:#C3DCF2"/>
	<stop  offset="0.17" style="stop-color:#A9D2EE"/>
	<stop  offset="0.31" style="stop-color:#80C2E7"/>
	<stop  offset="0.46" style="stop-color:#47ACDE"/>
	<stop  offset="0.57" style="stop-color:#1E9CD7"/>
	<stop  offset="0.87" style="stop-color:#0075BE"/>
	<stop  offset="0.99" style="stop-color:#005B97"/>
</linearGradient>
<circle class="st9" cx="57.9" cy="94.7" r="1.6"/>
<path d="M28,58.7c-0.6-3.6-0.6-7.4,0-11c1.8-11.6,8.9-19.1,12-22c5.2,4.4,10.3,9.1,15,14c5.7,5.9,9.7,10.1,12,14
	c7.8,13.3,0.4,32-4,41c3.3-2.7,6.3-5.7,9-9c19.3-23.8,14.9-55.6,13-66c-1.2-2.9-2.9-5.6-5-8C71.5,2,55.7-2.6,43,2.7
	c-3.8,1.6-7.2,4-10,7c-1.6-0.4-3.4-0.4-5,0c-8.8,2.4-13.7,18.5-11,31C19,49.7,24.7,55.7,28,58.7z"/>
<path class="st10" d="M28,58.7c-0.6-3.6-0.6-7.4,0-11c1.8-11.6,8.9-19.1,12-22c5.2,4.4,10.3,9.1,15,14c5.7,5.9,9.7,10.1,12,14
	c7.8,13.3,0.4,32-4,41c3.3-2.7,6.3-5.7,9-9c19.3-23.8,14.9-55.6,13-66c-1.2-2.9-2.9-5.6-5-8C71.5,2,55.7-2.6,43,2.7
	c-3.8,1.6-7.2,4-10,7c-1.6-0.4-3.4-0.4-5,0c-8.8,2.4-13.7,18.5-11,31C19,49.7,24.7,55.7,28,58.7z"/>
<linearGradient id="SVGID_17_" gradientUnits="userSpaceOnUse" x1="16.2967" y1="47.6177" x2="86.8558" y2="47.6177">
	<stop  offset="0" style="stop-color:#CCE0F4"/>
	<stop  offset="6.000000e-02" style="stop-color:#C3DCF2"/>
	<stop  offset="0.17" style="stop-color:#A9D2EE"/>
	<stop  offset="0.31" style="stop-color:#80C2E7"/>
	<stop  offset="0.46" style="stop-color:#47ACDE"/>
	<stop  offset="0.57" style="stop-color:#1E9CD7"/>
	<stop  offset="0.87" style="stop-color:#0075BE"/>
	<stop  offset="0.99" style="stop-color:#005B97"/>
</linearGradient>
<path class="st11" d="M28,58.7c-0.6-3.6-0.6-7.4,0-11c1.8-11.6,8.9-19.1,12-22c5.2,4.4,10.3,9.1,15,14c5.7,5.9,9.7,10.1,12,14
	c7.8,13.3,0.4,32-4,41c3.3-2.7,6.3-5.7,9-9c19.3-23.8,14.9-55.6,13-66c-1.2-2.9-2.9-5.6-5-8C71.5,2,55.7-2.6,43,2.7
	c-3.8,1.6-7.2,4-10,7c-1.6-0.4-3.4-0.4-5,0c-8.8,2.4-13.7,18.5-11,31C19,49.7,24.7,55.7,28,58.7z"/>
</svg>
